<svg width="38" height="38" viewBox="0 0 38 38" fill="none" xmlns="http://www.w3.org/2000/svg">
<path d="M17.6306 31.0229L16.9015 29.6174H16.9015L17.6306 31.0229ZM16.3701 31.0229L17.0991 29.6174L17.0991 29.6174L16.3701 31.0229ZM26.5003 17.0833C26.5003 20.4808 24.7712 23.2835 22.6132 25.4601C20.4567 27.6353 18.0045 29.0454 16.9015 29.6174L18.3596 32.4285C19.6046 31.7827 22.3789 30.1942 24.862 27.6896C27.3436 25.1866 29.667 21.6284 29.667 17.0833H26.5003ZM17.0003 7.58333C22.247 7.58333 26.5003 11.8366 26.5003 17.0833H29.667C29.667 10.0877 23.9959 4.41667 17.0003 4.41667V7.58333ZM7.50033 17.0833C7.50033 11.8366 11.7536 7.58333 17.0003 7.58333V4.41667C10.0047 4.41667 4.33366 10.0877 4.33366 17.0833H7.50033ZM17.0991 29.6174C15.9962 29.0454 13.5439 27.6353 11.3875 25.4601C9.2295 23.2835 7.50033 20.4808 7.50033 17.0833H4.33366C4.33366 21.6284 6.65705 25.1866 9.13866 27.6896C11.6217 30.1942 14.396 31.7827 15.6411 32.4285L17.0991 29.6174ZM16.9015 29.6174C16.9234 29.6061 16.958 29.5954 17.0003 29.5954C17.0427 29.5954 17.0773 29.6061 17.0991 29.6174L15.6411 32.4285C16.4985 32.8732 17.5021 32.8732 18.3596 32.4285L16.9015 29.6174ZM20.1667 17.4167C20.1667 19.1656 18.7489 20.5833 17 20.5833V23.75C20.4978 23.75 23.3333 20.9145 23.3333 17.4167H20.1667ZM17 14.25C18.7489 14.25 20.1667 15.6678 20.1667 17.4167H23.3333C23.3333 13.9189 20.4978 11.0833 17 11.0833V14.25ZM13.8333 17.4167C13.8333 15.6678 15.2511 14.25 17 14.25V11.0833C13.5022 11.0833 10.6667 13.9189 10.6667 17.4167H13.8333ZM17 20.5833C15.2511 20.5833 13.8333 19.1656 13.8333 17.4167H10.6667C10.6667 20.9145 13.5022 23.75 17 23.75V20.5833Z" fill="#FF4D35"/>
</svg>
