<svg width="26" height="26" viewBox="0 0 26 26" fill="none" xmlns="http://www.w3.org/2000/svg">
<path d="M14.2693 3.25H9.75008C7.70733 3.25 6.68595 3.25 6.05135 3.8846C5.41675 4.5192 5.41675 5.54058 5.41675 7.58333V18.4167C5.41675 20.4594 5.41675 21.4808 6.05135 22.1154C6.68595 22.75 7.70733 22.75 9.75008 22.75H16.2501C18.2928 22.75 19.3142 22.75 19.9488 22.1154C20.5834 21.4808 20.5834 20.4594 20.5834 18.4167V9.56413C20.5834 9.12132 20.5834 8.89991 20.501 8.70082C20.4185 8.50174 20.2619 8.34518 19.9488 8.03207L15.8014 3.8846C15.4882 3.57149 15.3317 3.41493 15.1326 3.33246C14.9335 3.25 14.7121 3.25 14.2693 3.25Z" stroke="white" stroke-width="2.16667"/>
<path d="M9.75 14.0834L16.25 14.0834" stroke="white" stroke-width="2.16667" stroke-linecap="round"/>
<path d="M9.75 18.4166L14.0833 18.4166" stroke="white" stroke-width="2.16667" stroke-linecap="round"/>
<path d="M14.0833 3.25V7.58333C14.0833 8.60471 14.0833 9.1154 14.4006 9.4327C14.7179 9.75 15.2285 9.75 16.2499 9.75H20.5833" stroke="white" stroke-width="2.16667"/>
</svg>
