<svg width="26" height="26" viewBox="0 0 26 26" fill="none" xmlns="http://www.w3.org/2000/svg">
<path d="M20.8522 7.71268L15.9795 8.31614L16.5806 5.32328C16.7661 4.38914 16.6405 3.41994 16.2229 2.56395C15.8054 1.70796 15.119 1.01232 14.2686 0.583435C13.6331 0.269814 12.9006 0.215212 12.2256 0.431138C11.5506 0.647065 10.9858 1.11665 10.6502 1.7409L6.36619 9.81523C6.13724 9.64552 5.85177 9.57041 5.56894 9.60546L1.13324 10.1548C0.839133 10.1912 0.571543 10.343 0.389334 10.5767C0.207126 10.8104 0.125225 11.107 0.161649 11.4011L1.8097 24.7082C1.84612 25.0023 1.99789 25.2699 2.23161 25.4521C2.46532 25.6343 2.76185 25.7162 3.05596 25.6798L7.49166 25.1304C7.78577 25.094 8.05336 24.9422 8.23557 24.7085C8.41778 24.4748 8.49968 24.1783 8.46325 23.8842L8.44512 23.7378L10.1799 24.6083C10.3773 24.7069 10.5994 24.7452 10.8184 24.7184L20.7988 23.4824C21.0049 23.457 21.1998 23.3746 21.3617 23.2446C21.5236 23.1145 21.646 22.942 21.7153 22.7462L24.7669 14.1298C25.011 13.4371 25.0916 12.6972 25.0024 11.9681L24.8626 10.8393C24.7443 9.89333 24.2556 9.03295 23.5038 8.44683C22.752 7.8607 21.7984 7.59669 20.8522 7.71268ZM6.10806 23.0499L3.89021 23.3246L2.51684 12.2353L4.73469 11.9607L6.10806 23.0499ZM22.7846 12.2428C22.8315 12.6278 22.789 13.0183 22.6602 13.3842L19.8388 21.3494L10.8764 22.4594L8.1151 21.073L7.13314 13.1442L12.6251 2.78664C12.6837 2.6749 12.7839 2.59071 12.9041 2.55223C13.0243 2.51376 13.1547 2.52409 13.2673 2.581C13.6805 2.78914 14.014 3.12696 14.2168 3.54273C14.4195 3.9585 14.4804 4.42928 14.3901 4.88297L13.4852 9.39519C13.4504 9.5685 13.4572 9.74759 13.5051 9.91777C13.5529 10.0879 13.6404 10.2443 13.7605 10.3741C13.8805 10.5039 14.0296 10.6033 14.1956 10.6642C14.3615 10.7252 14.5395 10.7459 14.715 10.7246L21.1268 9.93053C21.485 9.88647 21.846 9.98634 22.1306 10.2082C22.4152 10.4301 22.6001 10.7558 22.6448 11.1139L22.7846 12.2428Z" fill="white"/>
<path d="M20.8522 7.71268L15.9795 8.31614L16.5806 5.32328C16.7661 4.38914 16.6405 3.41994 16.2229 2.56395C15.8054 1.70796 15.119 1.01232 14.2686 0.583435C13.6331 0.269814 12.9006 0.215212 12.2256 0.431138C11.5506 0.647065 10.9858 1.11665 10.6502 1.7409L6.36619 9.81523C6.13724 9.64552 5.85177 9.57041 5.56894 9.60546L1.13324 10.1548C0.839133 10.1912 0.571543 10.343 0.389334 10.5767C0.207126 10.8104 0.125225 11.107 0.161649 11.4011L1.8097 24.7082C1.84612 25.0023 1.99789 25.2699 2.23161 25.4521C2.46532 25.6343 2.76185 25.7162 3.05596 25.6798L7.49166 25.1304C7.78577 25.094 8.05336 24.9422 8.23557 24.7085C8.41778 24.4748 8.49968 24.1783 8.46325 23.8842L8.44512 23.7378L10.1799 24.6083C10.3773 24.7069 10.5994 24.7452 10.8184 24.7184L20.7988 23.4824C21.0049 23.457 21.1998 23.3746 21.3617 23.2446C21.5236 23.1145 21.646 22.942 21.7153 22.7462L24.7669 14.1298C25.011 13.4371 25.0916 12.6972 25.0024 11.9681L24.8626 10.8393C24.7443 9.89333 24.2556 9.03295 23.5038 8.44683C22.752 7.8607 21.7984 7.59669 20.8522 7.71268ZM6.10806 23.0499L3.89021 23.3246L2.51684 12.2353L4.73469 11.9607L6.10806 23.0499ZM22.7846 12.2428C22.8315 12.6278 22.789 13.0183 22.6602 13.3842L19.8388 21.3494L10.8764 22.4594L8.1151 21.073L7.13314 13.1442L12.6251 2.78664C12.6837 2.6749 12.7839 2.59071 12.9041 2.55223C13.0243 2.51376 13.1547 2.52409 13.2673 2.581C13.6805 2.78914 14.014 3.12696 14.2168 3.54273C14.4195 3.9585 14.4804 4.42928 14.3901 4.88297L13.4852 9.39519C13.4504 9.5685 13.4572 9.74759 13.5051 9.91777C13.5529 10.0879 13.6404 10.2443 13.7605 10.3741C13.8805 10.5039 14.0296 10.6033 14.1956 10.6642C14.3615 10.7252 14.5395 10.7459 14.715 10.7246L21.1268 9.93053C21.485 9.88647 21.846 9.98634 22.1306 10.2082C22.4152 10.4301 22.6001 10.7558 22.6448 11.1139L22.7846 12.2428Z" stroke="white"/>
</svg>
