<svg width="18" height="19" viewBox="0 0 18 19" fill="none" xmlns="http://www.w3.org/2000/svg">
<g clip-path="url(#clip0_84_357)">
<path d="M15.6607 12.4487C14.6545 12.3659 13.6819 12.1277 12.7732 11.7426C12.3303 11.548 11.8026 11.6265 11.4779 11.9075L9.51096 13.1536C7.47946 11.8447 6.2314 10.3737 5.28635 8.17231L6.79585 6.47625C7.16659 6.1619 7.33063 5.67061 7.22246 5.18894C6.98902 4.22329 6.91224 3.22386 6.99489 2.2194C7.05332 1.5094 6.52309 0.884089 5.81309 0.825665L2.80828 0.578409C2.09827 0.519985 1.47297 1.05021 1.41454 1.76021C0.732896 10.044 6.91846 17.3388 15.2022 18.0205C15.9122 18.0789 16.5376 17.5487 16.596 16.8387L16.8425 13.8425C16.901 13.1325 16.3707 12.5071 15.6607 12.4487Z" fill="black"/>
</g>
<defs>
<clipPath id="clip0_84_357">
<rect width="16.3669" height="16.3669" fill="white" transform="translate(1.52051 0.472443) rotate(4.70409)"/>
</clipPath>
</defs>
</svg>
